REM DIRINDEX 1\2\6,1\2\7,1\2\8,1\2\9,1\3\10,1\3\11,1\4\12,1\4\13,1\4\14,1\5\15,1\5\16,1\5\17
REM DIRNAME folder01,folder02,folder03,folder04,folder05,folder06,folder07,folder08,folder09,folder10,folder11,folder12,folder13,folder14,folder15,folder16,folder17
TITLE ""
FILE "1400_2_sec06_0568_0584.mp3" MP3
  TRACK 01 AUDIO
    TITLE "0:"
    INDEX 01 00:00:00
  TRACK 02 AUDIO
    TITLE "13:cjc029_2724"
    INDEX 01 00:00:29
  TRACK 03 AUDIO
    TITLE "0:"
    INDEX 01 00:01:28
  TRACK 04 AUDIO
    TITLE "14:cjc029_2725"
    INDEX 01 00:01:34
  TRACK 05 AUDIO
    TITLE "0:"
    INDEX 01 00:02:47
  TRACK 06 AUDIO
    TITLE "13:cjc029_2726"
    INDEX 01 00:03:27
  TRACK 07 AUDIO
    TITLE "0:"
    INDEX 01 00:04:66
  TRACK 08 AUDIO
    TITLE "14:cjc029_2727"
    INDEX 01 00:04:70
  TRACK 09 AUDIO
    TITLE "0:"
    INDEX 01 00:06:12
  TRACK 10 AUDIO
    TITLE "13:cjc029_2728"
    INDEX 01 00:06:67
  TRACK 11 AUDIO
    TITLE "0:"
    INDEX 01 00:08:03
  TRACK 12 AUDIO
    TITLE "14:cjc029_2729"
    INDEX 01 00:08:09
  TRACK 13 AUDIO
    TITLE "0:"
    INDEX 01 00:11:62
  TRACK 14 AUDIO
    TITLE "13:cjc029_2730"
    INDEX 01 00:12:48
  TRACK 15 AUDIO
    TITLE "0:"
    INDEX 01 00:13:65
  TRACK 16 AUDIO
    TITLE "14:cjc029_2731"
    INDEX 01 00:13:73
  TRACK 17 AUDIO
    TITLE "0:"
    INDEX 01 00:16:49
  TRACK 18 AUDIO
    TITLE "13:cjc029_2732"
    INDEX 01 00:17:33
  TRACK 19 AUDIO
    TITLE "0:"
    INDEX 01 00:18:52
  TRACK 20 AUDIO
    TITLE "14:cjc029_2733"
    INDEX 01 00:18:58
  TRACK 21 AUDIO
    TITLE "0:"
    INDEX 01 00:22:38
  TRACK 22 AUDIO
    TITLE "13:cjc029_2734"
    INDEX 01 00:23:20
  TRACK 23 AUDIO
    TITLE "0:"
    INDEX 01 00:24:45
  TRACK 24 AUDIO
    TITLE "14:cjc029_2735"
    INDEX 01 00:24:51
  TRACK 25 AUDIO
    TITLE "0:"
    INDEX 01 00:27:06
  TRACK 26 AUDIO
    TITLE "13:cjc029_2736"
    INDEX 01 00:27:65
  TRACK 27 AUDIO
    TITLE "0:"
    INDEX 01 00:29:21
  TRACK 28 AUDIO
    TITLE "14:cjc029_2737"
    INDEX 01 00:29:29
  TRACK 29 AUDIO
    TITLE "0:"
    INDEX 01 00:33:05
  TRACK 30 AUDIO
    TITLE "13:cjc029_2738"
    INDEX 01 00:33:60
  TRACK 31 AUDIO
    TITLE "0:"
    INDEX 01 00:34:69
  TRACK 32 AUDIO
    TITLE "14:cjc029_2739"
    INDEX 01 00:34:73
  TRACK 33 AUDIO
    TITLE "0:"
    INDEX 01 00:36:09
  TRACK 34 AUDIO
    TITLE "13:cjc029_2740"
    INDEX 01 00:36:64
  TRACK 35 AUDIO
    TITLE "0:"
    INDEX 01 00:38:00
  TRACK 36 AUDIO
    TITLE "14:cjc029_2741"
    INDEX 01 00:38:06
  TRACK 37 AUDIO
    TITLE "0:"
    INDEX 01 00:39:09
  TRACK 38 AUDIO
    TITLE "12:cjc029_2742"
    INDEX 01 00:40:58
  TRACK 39 AUDIO
    TITLE "0:"
    INDEX 01 00:42:25
  TRACK 40 AUDIO
    TITLE "13:cjc029_2743"
    INDEX 01 00:43:29
  TRACK 41 AUDIO
    TITLE "0:"
    INDEX 01 00:44:12
  TRACK 42 AUDIO
    TITLE "14:cjc029_2744"
    INDEX 01 00:44:26
  TRACK 43 AUDIO
    TITLE "0:"
    INDEX 01 00:48:10
  TRACK 44 AUDIO
    TITLE "13:cjc029_2745"
    INDEX 01 00:48:65
  TRACK 45 AUDIO
    TITLE "0:"
    INDEX 01 00:50:05
  TRACK 46 AUDIO
    TITLE "14:cjc029_2746"
    INDEX 01 00:50:09
  TRACK 47 AUDIO
    TITLE "0:"
    INDEX 01 00:54:42
  TRACK 48 AUDIO
    TITLE "13:cjc029_2747"
    INDEX 01 00:55:22
  TRACK 49 AUDIO
    TITLE "0:"
    INDEX 01 00:56:41
  TRACK 50 AUDIO
    TITLE "14:cjc029_2748"
    INDEX 01 00:56:49
  TRACK 51 AUDIO
    TITLE "0:"
    INDEX 01 00:59:08
  TRACK 52 AUDIO
    TITLE "13:cjc029_2749"
    INDEX 01 00:59:67
  TRACK 53 AUDIO
    TITLE "0:"
    INDEX 01 01:01:09
  TRACK 54 AUDIO
    TITLE "14:cjc029_2750"
    INDEX 01 01:01:21
  TRACK 55 AUDIO
    TITLE "0:"
    INDEX 01 01:02:44
  TRACK 56 AUDIO
    TITLE "13:cjc029_2751"
    INDEX 01 01:03:26
  TRACK 57 AUDIO
    TITLE "0:"
    INDEX 01 01:04:50
  TRACK 58 AUDIO
    TITLE "14:cjc029_2752"
    INDEX 01 01:04:54
  TRACK 59 AUDIO
    TITLE "0:"
    INDEX 01 01:09:16
  TRACK 60 AUDIO
    TITLE "13:cjc029_2753"
    INDEX 01 01:09:73
  TRACK 61 AUDIO
    TITLE "0:"
    INDEX 01 01:11:05
  TRACK 62 AUDIO
    TITLE "14:cjc029_2754"
    INDEX 01 01:11:11
  TRACK 63 AUDIO
    TITLE "0:"
    INDEX 01 01:13:24
  TRACK 64 AUDIO
    TITLE "13:cjc029_2755"
    INDEX 01 01:14:08
  TRACK 65 AUDIO
    TITLE "0:"
    INDEX 01 01:15:11
  TRACK 66 AUDIO
    TITLE "14:cjc029_2756"
    INDEX 01 01:15:17
  TRACK 67 AUDIO
    TITLE "0:"
    INDEX 01 01:17:45
  TRACK 68 AUDIO
    TITLE "13:cjc029_2757"
    INDEX 01 01:18:27
  TRACK 69 AUDIO
    TITLE "0:"
    INDEX 01 01:19:48
  TRACK 70 AUDIO
    TITLE "14:cjc029_2758"
    INDEX 01 01:19:54
  TRACK 71 AUDIO
    TITLE "0:"
    INDEX 01 01:22:09
